<svg id="Laag_1" data-name="Laag 1" xmlns="http://www.w3.org/2000/svg" viewBox="0 0 134.7 76.19"><defs><style>.cls-1{fill:none;stroke:#f58a08;stroke-miterlimit:10;stroke-width:4.5px;}.cls-2{fill:#f58a08;}</style></defs><title>premium</title><g id="Laag_1_Afbeelding" data-name="Laag 1 Afbeelding"><line class="cls-1" x1="132.1" y1="69.53" x2="61.5" y2="69.53"/><circle class="cls-2" cx="64.41" cy="71.46" r="6.9" transform="translate(-28.98 46.2) rotate(-34.08)"/><path class="cls-2" d="M123.3,68.2c-10.5-.1-21-.1-31.6-.2A26.83,26.83,0,0,0,79.5,43.8c-12.8-8.1-26.3-1.3-26.9-1A28,28,0,0,0,38.2,68l-29-.3A56.36,56.36,0,0,1,36.8,18.2c27.3-16.1,55.1-1.1,56.9,0C122.1,34.2,123.3,66.7,123.3,68.2Z" transform="translate(0 -2.17)"/><circle class="cls-2" cx="131.91" cy="71.68" r="2.3" transform="translate(-17.51 84.06) rotate(-34.08)"/><path class="cls-2" d="M134.7,68.1h-4.1c-.1-2.2-2.3-37.2-33.1-54.5C94.8,12,67-3,38,11.5,17.1,22,3.7,43.7,3.1,67.7H0C.7,42.7,14.6,20.1,36.4,9c30.7-15.6,60.2.2,63.1,1.8C132,29.1,134.6,65.6,134.7,68.1Z" transform="translate(0 -2.17)"/></g></svg>