<svg xmlns="http://www.w3.org/2000/svg" viewBox="0 0 135 73.71"><defs><style>.cls-1,.cls-3{fill:#f58a08;}.cls-1{opacity:0.3;}.cls-2{stroke:#f58a08;stroke-miterlimit:10;stroke-width:4.5px;}</style></defs><title>orange_starter_1</title><g id="Licht"><path class="cls-1" d="M39.73,17,56.27,40.46c1.57-.58,14-5,26.12,2.4C96.08,51.19,96.74,66.93,96.77,68l29-.3c0-1.76-.53-32.94-27.58-49.55A58.11,58.11,0,0,0,39.73,17Z" transform="translate(0 -1.87)"/><path class="cls-1" d="M35,10,36.52,12c2.55-1.35,31.07-15.76,60.47-.5A65.46,65.46,0,0,1,131.9,67.74l3.1,0A68.12,68.12,0,0,0,98.6,9.08C67.57-7,37.54,8.6,35,10Z" transform="translate(0 -1.87)"/></g><g id="Donker"><line class="cls-2" x1="24.55" y1="3.91" x2="68.92" y2="69.25"/><circle class="cls-3" cx="67.49" cy="66.76" r="6.95"/><path class="cls-3" d="M29.19,23.93A62.48,62.48,0,0,0,9.29,68H38.05a25.15,25.15,0,0,1,7.67-19.89Z" transform="translate(0 -1.87)"/><circle class="cls-3" cx="24.66" cy="4.06" r="2.25"/><path class="cls-3" d="M24.24,16.91A66.68,66.68,0,0,0,0,68.16l3,0A68.89,68.89,0,0,1,25.73,19.25Z" transform="translate(0 -1.87)"/></g></svg>