<svg version="1" xmlns="http://www.w3.org/2000/svg" width="568" height="568" viewBox="0 0 426.000000 426.000000"><path d="M196.8.5c-.1.1-3.6.6-7.7.9-4.1.4-7.7.8-8 1-.3.2-2.8.6-5.6 1-7.3.9-25.8 5.9-36.8 10C98 28.7 65.6 53.7 38.2 91.2c-2.3 3.1-4.2 6-4.2 6.3 0 .4-1.3 2.5-2.9 4.8-3.8 5.6-12.3 22.5-15.9 31.7-6.7 17.1-11.5 36.1-13.9 55.5-1.5 11.6-.8 45.4 1.1 55 .2 1.1.7 4 1.1 6.5.3 2.5 1.9 9.5 3.5 15.6 11.7 45.5 39.1 86.9 76.5 115.5 15.7 12 36.4 23.5 55 30.4 10.9 4.1 32.8 9.9 41.5 11 3 .4 8.2 1 11.5 1.5 6.5.8 41.8.5 47.5-.4 1.9-.4 6.4-1.1 10-1.7 23.2-3.9 48.5-12.9 68.6-24.5 9.4-5.3 24.4-15.4 27.2-18.1.7-.7 3.4-2.9 6-5 12.1-9.7 29.4-29.2 39.4-44.2 17.2-25.9 29.7-58.2 33.4-86.1.3-2.5.9-7.2 1.4-10.5.9-6.3.5-43.2-.4-47.5-.3-1.3-.8-4.2-1.1-6.5-1.2-8.2-1.6-10.2-4.4-21.1C408.3 118 385.5 81 353 52.5c-6.8-6-23-17.9-29-21.3-1.9-1.1-6.2-3.5-9.5-5.4-21.1-11.9-45.7-19.8-76-24.4-4.3-.6-41.1-1.5-41.7-.9z"/></svg>