<svg xmlns="http://www.w3.org/2000/svg" viewBox="0 0 135 73.71"><defs><style>.cls-1,.cls-3{fill:#f58a08;}.cls-2{stroke:#f58a08;stroke-miterlimit:10;stroke-width:4.5px;}.cls-3{opacity:0.3;}</style></defs><title>premium</title><g id="Licht"><path class="cls-1" d="M95.27,17,78.73,40.46c-1.57-.58-14-5-26.12,2.4C38.92,51.19,38.26,66.93,38.23,68l-29-.3c0-1.76.53-32.94,27.58-49.55A58.11,58.11,0,0,1,95.27,17Z" transform="translate(0 -1.87)"/><path class="cls-1" d="M100,10,98.48,12C95.92,10.67,67.41-3.74,38,11.52A65.46,65.46,0,0,0,3.1,67.74l-3.1,0A68.12,68.12,0,0,1,36.4,9.08C67.43-7,97.46,8.6,100,10Z" transform="translate(0 -1.87)"/></g><g id="Donker"><line class="cls-2" x1="110.45" y1="3.91" x2="66.08" y2="69.25"/><circle class="cls-1" cx="67.51" cy="66.76" r="6.95"/><path class="cls-3" d="M105.81,23.93A62.48,62.48,0,0,1,125.71,68H96.95a25.15,25.15,0,0,0-7.67-19.89Z" transform="translate(0 -1.87)"/><circle class="cls-1" cx="110.34" cy="4.06" r="2.25"/><path class="cls-3" d="M110.76,16.91A66.68,66.68,0,0,1,135,68.16l-3,0a68.89,68.89,0,0,0-22.72-48.86Z" transform="translate(0 -1.87)"/></g></svg>